<?xml version="1.0" standalone="no"?>
<!DOCTYPE svg PUBLIC "-//W3C//DTD SVG 20010904//EN"
 "http://www.w3.org/TR/2001/REC-SVG-20010904/DTD/svg10.dtd">
<svg version="1.0" xmlns="http://www.w3.org/2000/svg"
 width="224.000000pt" height="224.000000pt" viewBox="0 0 224.000000 224.000000"
 preserveAspectRatio="xMidYMid meet">
<metadata>
Created by potrace 1.14, written by Peter Selinger 2001-2017
</metadata>
<g transform="translate(0.000000,224.000000) scale(0.100000,-0.100000)"
fill="#000000" stroke="none">
<path d="M359 2230 c-46 -13 -78 -41 -99 -84 -20 -42 -20 -55 -20 -1026 0
-974 0 -984 21 -1026 12 -26 36 -53 57 -66 l37 -23 765 0 765 0 37 23 c21 13
45 40 57 66 21 42 21 54 21 812 l0 769 -283 283 -282 282 -525 -1 c-289 0
-537 -4 -551 -9z m921 -382 c5 -248 6 -252 74 -302 25 -19 45 -21 254 -26
l227 -5 3 -599 c1 -371 -2 -612 -8 -635 -13 -48 -67 -100 -116 -112 -51 -11
-1137 -11 -1188 0 -48 12 -103 64 -116 111 -11 39 -14 1616 -4 1669 9 45 71
111 114 121 19 4 197 7 395 7 l360 -2 5 -227z"/>
<path d="M607 1433 c-20 -5 -47 -52 -47 -83 0 -11 11 -32 25 -45 l24 -25 231
0 231 0 24 25 c16 15 25 36 25 55 0 19 -9 40 -25 55 l-24 25 -223 -1 c-123 -1
-231 -3 -241 -6z"/>
<path d="M585 1095 c-33 -33 -32 -70 4 -106 l29 -29 502 0 502 0 29 29 c36 36
37 73 4 106 l-24 25 -511 0 -511 0 -24 -25z"/>
<path d="M585 775 c-40 -40 -30 -96 22 -123 31 -17 995 -17 1026 0 52 27 62
83 22 123 l-24 25 -511 0 -511 0 -24 -25z"/>
<path d="M585 455 c-33 -33 -32 -70 4 -106 l29 -29 502 0 502 0 29 29 c36 36
37 73 4 106 l-24 25 -511 0 -511 0 -24 -25z"/>
</g>
</svg>
